<?xml version="1.0" encoding="utf-8"?>
<!-- Generator: Adobe Illustrator 28.3.0, SVG Export Plug-In . SVG Version: 6.00 Build 0)  -->
<svg version="1.1" id="Шар_1" xmlns="http://www.w3.org/2000/svg" xmlns:xlink="http://www.w3.org/1999/xlink" x="0px" y="0px"
	 viewBox="0 0 1920 1080" style="enable-background:new 0 0 1920 1080;" xml:space="preserve">
<style type="text/css">
	.st0{fill:url(#SVGID_1_);}
	.st1{fill:none;stroke:#4C566A;stroke-width:4.8043;stroke-miterlimit:9.6086;}
	.st2{fill:#ECEFF4;}
	
		.st3{fill:none;stroke:#4C566A;stroke-width:4.8043;stroke-linecap:round;stroke-linejoin:round;stroke-miterlimit:9.6086;stroke-dasharray:536.4627,536.4627;}
	.st4{fill:#88C0D0;}
	.st5{fill:#D8DEE9;stroke:#D8DEE9;stroke-width:2.4021;stroke-miterlimit:9.6086;}
	.st6{fill:#7FB2C1;stroke:#7FB2C1;stroke-width:4.8043;stroke-miterlimit:9.6086;}
	.st7{fill:#7FB2C1;stroke:#7FB2C1;stroke-width:2.4021;stroke-miterlimit:9.6086;}
	
		.st8{fill:none;stroke:#4C566A;stroke-width:4.8043;stroke-linecap:round;stroke-linejoin:round;stroke-miterlimit:9.6086;stroke-dasharray:297.1897,297.1897;}
	
		.st9{fill:none;stroke:#4C566A;stroke-width:4.8043;stroke-linecap:round;stroke-linejoin:round;stroke-miterlimit:9.6086;stroke-dasharray:16.2849,16.2849;}
	
		.st10{fill:none;stroke:#4C566A;stroke-width:4.8043;stroke-linecap:round;stroke-linejoin:round;stroke-miterlimit:9.6086;stroke-dasharray:92.8861,92.8861;}
	
		.st11{fill:none;stroke:#4C566A;stroke-width:4.8043;stroke-linecap:round;stroke-linejoin:round;stroke-miterlimit:9.6086;stroke-dasharray:573.8492,573.8492;}
	
		.st12{fill:none;stroke:#4C566A;stroke-width:4.8043;stroke-linecap:round;stroke-linejoin:round;stroke-miterlimit:9.6086;stroke-dasharray:52.4115,52.4115;}
	
		.st13{fill:none;stroke:#4C566A;stroke-width:4.8043;stroke-linecap:round;stroke-linejoin:round;stroke-miterlimit:9.6086;stroke-dasharray:200.6019,200.6019;}
	
		.st14{fill:none;stroke:#4C566A;stroke-width:4.8043;stroke-linecap:round;stroke-linejoin:round;stroke-miterlimit:9.6086;stroke-dasharray:333.6833,333.6833;}
	
		.st15{fill:none;stroke:#4C566A;stroke-width:4.8043;stroke-linecap:round;stroke-linejoin:round;stroke-miterlimit:9.6086;stroke-dasharray:176.9462,176.9462;}
	
		.st16{fill:none;stroke:#4C566A;stroke-width:4.8043;stroke-linecap:round;stroke-linejoin:round;stroke-miterlimit:9.6086;stroke-dasharray:79.659,79.659;}
	
		.st17{fill:none;stroke:#4C566A;stroke-width:4.8043;stroke-linecap:round;stroke-linejoin:round;stroke-miterlimit:9.6086;stroke-dasharray:125.2212,125.2212;}
	
		.st18{fill:none;stroke:#4C566A;stroke-width:4.8043;stroke-linecap:round;stroke-linejoin:round;stroke-miterlimit:9.6086;stroke-dasharray:224.4667,224.4667;}
	
		.st19{fill:none;stroke:#4C566A;stroke-width:4.8043;stroke-linecap:round;stroke-linejoin:round;stroke-miterlimit:9.6086;stroke-dasharray:647.2957,647.2957;}
	
		.st20{fill:none;stroke:#4C566A;stroke-width:4.8043;stroke-linecap:round;stroke-linejoin:round;stroke-miterlimit:9.6086;stroke-dasharray:468.9109,468.9109;}
	
		.st21{fill:none;stroke:#4C566A;stroke-width:4.8043;stroke-linecap:round;stroke-linejoin:round;stroke-miterlimit:9.6086;stroke-dasharray:154.108,154.108;}
	
		.st22{fill:none;stroke:#4C566A;stroke-width:4.8043;stroke-linecap:round;stroke-linejoin:round;stroke-miterlimit:9.6086;stroke-dasharray:147.5531,147.5531;}
	
		.st23{fill:none;stroke:#4C566A;stroke-width:4.8043;stroke-linecap:round;stroke-linejoin:round;stroke-miterlimit:9.6086;stroke-dasharray:660.8207,660.8207;}
	
		.st24{fill:none;stroke:#4C566A;stroke-width:4.8043;stroke-linecap:round;stroke-linejoin:round;stroke-miterlimit:9.6086;stroke-dasharray:2554.385,2554.385;}
	
		.st25{fill:none;stroke:#4C566A;stroke-width:4.8043;stroke-linecap:round;stroke-linejoin:round;stroke-miterlimit:9.6086;stroke-dasharray:844.2928,844.2928;}
	
		.st26{fill:none;stroke:#4C566A;stroke-width:4.8043;stroke-linecap:round;stroke-linejoin:round;stroke-miterlimit:9.6086;stroke-dasharray:1492.0963,1492.0963;}
</style>
<linearGradient id="SVGID_1_" gradientUnits="userSpaceOnUse" x1="1.6858" y1="1079.6267" x2="1.6858" y2="1078.6267" gradientTransform="matrix(1116.9954 0 0 -148.5964 -885.8198 160636.125)">
	<stop  offset="0" style="stop-color:#8FBCBB"/>
	<stop  offset="0.5" style="stop-color:#88C0D0"/>
	<stop  offset="1" style="stop-color:#81A1C1"/>
</linearGradient>
<path class="st0" d="M1555.8,262.1v63.6c0,2.7-2.7,4.9-6,4.9c-3.3,0-6-2.2-6-4.9v-5.1c0-2.7-2.7-4.9-6-4.9c-3.3,0-6,2.2-6,4.9v12.4
	c0,2.7-2.7,4.9-6,4.9c-3.3,0-6-2.2-6-4.9v-24.3c0-2.7-2.7-4.9-6-4.9c-3.3,0-6,2.2-6,4.9v21.8c0,2.7-2.7,4.9-6,4.9
	c-3.3,0-6-2.2-6-4.9v-12.2c0-2.7-2.7-4.9-6-4.9c-3.3,0-6,2.2-6,4.9v0.9c0,2.7-2.7,4.9-6,4.9c-3.3,0-6-2.2-6-4.9v-26.9
	c0-2.7-2.7-4.9-6-4.9c-3.3,0-6,2.2-6,4.9v11c0,2.7-2.7,4.9-6,4.9c-3.3,0-6-2.2-6-4.9v-8.8c0-2.7-2.7-4.9-6-4.9c-3.3,0-6,2.2-6,4.9
	v11.8c0,2.7-2.7,4.9-6,4.9c-3.3,0-6-2.2-6-4.9v-1.6c0-2.7-2.7-4.9-6-4.9c-3.3,0-6,2.2-6,4.9v13.2c0,2.7-2.7,4.9-6,4.9
	c-3.3,0-6-2.2-6-4.9v-1.8c0-2.7-2.7-4.9-6-4.9c-3.3,0-6,2.2-6,4.9v13.2c0,2.7-2.7,4.9-6,4.9c-3.3,0-6-2.2-6-4.9v-16.2
	c0-2.7-2.7-4.9-6-4.9c-3.3,0-6,2.2-6,4.9v21.3c0,2.7-2.7,4.9-6,4.9c-3.3,0-6-2.2-6-4.9v-11.4c0-2.7-2.7-4.9-6-4.9
	c-3.3,0-6,2.2-6,4.9v4.8c0,2.7-2.7,4.9-6,4.9c-2.8,0-5.1-1.5-5.8-3.6v-18.9c0-2.7-2.7-4.9-6.1-4.9c-3.4,0-6.1,2.2-6.1,4.9v11.1
	c0,2.7-2.7,4.9-6,4.9c-3.3,0-6-2.2-6-4.9v-2.2c0-2.7-2.7-4.9-6-4.9c-3.3,0-6,2.2-6,4.9v22.1c0,2.7-2.7,4.9-6,4.9c-3.3,0-6-2.2-6-4.9
	v-5c0-2.7-2.7-4.9-6-4.9c-3.3,0-6,2.2-6,4.9v14.9c0,2.7-2.7,4.9-6,4.9c-3.3,0-6-2.2-6-4.9v-29.4c0-2.7-2.7-4.9-6-4.9
	c-3.3,0-6,2.2-6,4.9v15c0,2.7-2.7,4.9-6,4.9c-3.3,0-6-2.2-6-4.9v-21.3c0-2.7-2.7-4.9-6-4.9c-3.3,0-6,2.2-6,4.9v8.9
	c0,2.7-2.7,4.9-6,4.9c-3.3,0-6-2.2-6-4.9v-0.9c0-2.7-2.7-4.9-6-4.9c-3.3,0-6,2.2-6,4.9v5.7c0,2.7-2.7,4.9-6,4.9c-3.3,0-6-2.2-6-4.9
	v-15.3c0,2.7-2.7,4.9-6,4.9c-3.3,0-6-2.2-6-4.9v-17c0-2.7-2.7-4.9-6-4.9c-3.3,0-6,2.2-6,4.9v21.8c0,2.7-2.7,4.9-6,4.9
	c-3.3,0-6-2.2-6-4.9v-16.2c0-2.7-2.7-4.9-6-4.9c-3.3,0-6,2.2-6,4.9v3.9c0,2.7-2.7,4.9-6,4.9c-3.3,0-6-2.2-6-4.9v-20.7
	c0-2.7-2.7-4.9-6-4.9c-3.3,0-6,2.2-6,4.9v6.3c0,2.7-2.7,4.9-6,4.9c-3.3,0-6-2.2-6-4.9v-10.6c0-2.7-2.7-4.9-6-4.9c-3.3,0-6,2.2-6,4.9
	v20.5c0,2.7-2.7,4.9-6,4.9c-3.3,0-6-2.2-6-4.9v-10.8c0-2.7-2.7-4.9-6-4.9c-3.3,0-6,2.2-6,4.9v30.7c0,2.7-2.7,4.9-6,4.9
	c-3.3,0-6-2.2-6-4.9v-18.5c0-2.7-2.7-4.9-6-4.9c-3.3,0-6,2.2-6,4.9v12.1c0,2.7-2.7,4.9-6,4.9c-3.3,0-6-2.2-6-4.9v-24.7
	c0-2.7-2.7-4.9-6-4.9c-3.3,0-6,2.2-6,4.9v18.2c0,2.7-2.7,4.9-6,4.9c-3.3,0-6-2.2-6-4.9v-3.8c0-2.7-2.7-4.9-6-4.9c-3.3,0-6,2.2-6,4.9
	v8.9c0,2.7-2.7,4.9-6,4.9c-3.3,0-6-2.2-6-4.9v-10.6c0-2.7-2.7-4.9-6-4.9c-3.3,0-6,2.2-6,4.9v22c0,2.7-2.7,4.9-6,4.9
	c-3.3,0-6-2.2-6-4.9v-14.5c0-2.7-2.7-4.9-6-4.9c-3.3,0-6,2.2-6,4.9v26c0,2.7-2.7,4.9-6,4.9c-3.3,0-6-2.2-6-4.9v0.6
	c0-2.7-2.7-4.9-6-4.9s-6,2.2-6,4.9v2.5c0,2.7-2.7,4.9-6,4.9c-3.3,0-6-2.2-6-4.9v-17.4c0-2.7-2.7-4.9-6-4.9c-3.3,0-6,2.2-6,4.9v1.5
	c0,2.7-2.7,4.9-6,4.9s-6-2.2-6-4.9v-20.6c0-2.7-2.7-4.9-6-4.9c-3.3,0-6,2.2-6,4.9v9.3c0,2.7-2.7,4.9-6,4.9c-3.3,0-6-2.2-6-4.9v-4.1
	c0-2.7-2.7-4.9-6-4.9c-3.3,0-6,2.2-6,4.9v1.6c0,2.7-2.7,4.9-6,4.9c-3.3,0-6-2.2-6-4.9v-26.9c0-2.7-2.7-4.9-6-4.9c-3.3,0-6,2.2-6,4.9
	v34.2c0,2.7-2.7,4.9-6,4.9c-3.3,0-6-2.2-6-4.9v-15.7c0,2.7-2.7,4.9-6,4.9c-3.3,0-6-2.2-6-4.9v-5.7c0-2.7-2.7-4.9-6-4.9s-6,2.2-6,4.9
	v0.9c0,2.7-2.7,4.9-6,4.9c-3.3,0-6-2.2-6-4.9v-9c0-2.7-2.7-4.9-6-4.9c-3.3,0-6,2.2-6,4.9v21.3c0,2.7-2.7,4.9-6,4.9s-6-2.2-6-4.9v-15
	c0-2.7-2.7-4.9-6-4.9c-3.3,0-6,2.2-6,4.9v29.4c0,2.7-2.7,4.9-6,4.9c-3.3,0-6-2.2-6-4.9v-14.9c0-2.7-2.7-4.9-6-4.9
	c-3.3,0-6,2.2-6,4.9v5c0,2.7-2.7,4.9-6,4.9c-3.3,0-6-2.2-6-4.9v-22.1c0-2.7-2.7-4.9-6-4.9c-3.3,0-6,2.2-6,4.9v2.2
	c0,2.7-2.7,4.9-6,4.9c-3.3,0-6-2.2-6-4.9v-11.1c0-2.7-2.7-4.9-6.1-4.9c-3.4,0-6.1,2.2-6.1,4.9v18.9c-0.7,2.1-3,3.6-5.8,3.6
	c-3.3,0-6-2.2-6-4.9v-4.8c0-2.7-2.7-4.9-6-4.9c-3.3,0-6,2.2-6,4.9v11.4c0,2.7-2.7,4.9-6,4.9c-3.3,0-6-2.2-6-4.9v-21.3
	c0-2.7-2.7-4.9-6-4.9s-6,2.2-6,4.9v16.2c0,2.7-2.7,4.9-6,4.9c-3.3,0-6-2.2-6-4.9v-13.2c0-2.7-2.7-4.9-6-4.9c-3.3,0-6,2.2-6,4.9v1.8
	c0,2.7-2.7,4.9-6,4.9s-6-2.2-6-4.9v-13.2c0-2.7-2.7-4.9-6-4.9c-3.3,0-6,2.2-6,4.9v1.6c0,2.7-2.7,4.9-6,4.9c-3.3,0-6-2.2-6-4.9v-11.8
	c0-2.7-2.7-4.9-6-4.9c-3.3,0-6,2.2-6,4.9v8.8c0,2.7-2.7,4.9-6,4.9c-3.3,0-6-2.2-6-4.9v-11c0-2.7-2.7-4.9-6-4.9c-3.3,0-6,2.2-6,4.9
	v26.9c0,2.7-2.7,4.9-6,4.9c-3.3,0-6-2.2-6-4.9v-0.9c0-2.7-2.7-4.9-6-4.9s-6,2.2-6,4.9v12.2c0,2.7-2.7,4.9-6,4.9s-6-2.2-6-4.9v-21.8
	c0-2.7-2.7-4.9-6-4.9c-3.3,0-6,2.2-6,4.9v24.3c0,2.7-2.7,4.9-6,4.9c-3.3,0-6-2.2-6-4.9v-12.4c0-2.7-2.7-4.9-6-4.9s-6,2.2-6,4.9v5.1
	c0,2.7-2.7,4.9-6,4.9s-6-2.2-6-4.9v-63.6c0-2.7,2.7-4.9,6-4.9s6,2.2,6,4.9v34.2c0,2.7,2.7,4.9,6,4.9s6-2.2,6-4.9V242
	c0-2.7,2.7-4.9,6-4.9c3.3,0,6,2.2,6,4.9v1.6c0,2.7,2.7,4.9,6,4.9c3.3,0,6-2.2,6-4.9v-4.1c0-2.7,2.7-4.9,6-4.9s6,2.2,6,4.9v9.4
	c0,2.7,2.7,4.9,6,4.9s6-2.2,6-4.9v-20.7c0-2.7,2.7-4.9,6-4.9s6,2.2,6,4.9v1.5c0,2.7,2.7,4.9,6,4.9c3.3,0,6-2.2,6-4.9v-17.4
	c0-2.7,2.7-4.9,6-4.9c3.3,0,6,2.2,6,4.9v2.4c0,2.7,2.7,4.9,6,4.9c3.3,0,6-2.2,6-4.9v0.6c0-2.7,2.7-4.9,6-4.9c3.3,0,6,2.2,6,4.9v26.1
	c0,2.7,2.7,4.9,6,4.9c3.3,0,6-2.2,6-4.9v-14.5c0-2.7,2.7-4.9,6-4.9s6,2.2,6,4.9v22.1c0,2.7,2.7,4.9,6,4.9c3.3,0,6-2.2,6-4.9v-10.6
	c0-2.7,2.7-4.9,6-4.9c3.3,0,6,2.2,6,4.9v8.9c0,2.7,2.7,4.9,6,4.9s6-2.2,6-4.9v-3.8c0-2.7,2.7-4.9,6-4.9c3.3,0,6,2.2,6,4.9v18.2
	c0,2.7,2.7,4.9,6,4.9c3.3,0,6-2.2,6-4.9v-24.7c0-2.7,2.7-4.9,6-4.9s6,2.2,6,4.9v12.1c0,2.7,2.7,4.9,6,4.9c3.3,0,6-2.2,6-4.9v-18.5
	c0-2.7,2.7-4.9,6-4.9c3.3,0,6,2.2,6,4.9v30.7c0,2.7,2.7,4.9,6,4.9c3.3,0,6-2.2,6-4.9v-10.8c0-2.7,2.7-4.9,6-4.9c3.3,0,6,2.2,6,4.9
	v20.5c0,2.7,2.7,4.9,6,4.9c3.3,0,6-2.2,6-4.9v-10.6c0-2.7,2.7-4.9,6-4.9c3.3,0,6,2.2,6,4.9v6.3c0,2.7,2.7,4.9,6,4.9
	c3.3,0,6-2.2,6-4.9v-20.7c0-2.7,2.7-4.9,6-4.9s6,2.2,6,4.9v3.9c0,2.7,2.7,4.9,6,4.9c3.3,0,6-2.2,6-4.9v-16.2c0-2.7,2.7-4.9,6-4.9
	c3.3,0,6,2.2,6,4.9v21.8c0,2.7,2.7,4.9,6,4.9s6-2.2,6-4.9v-17c0-2.7,2.7-4.9,6-4.9c3.3,0,6,2.2,6,4.9v15.7c0-2.7,2.7-4.9,6-4.9
	c3.3,0,6,2.2,6,4.9v5.1c0,2.7,2.7,4.9,6,4.9c3.3,0,6-2.2,6-4.9v-12.4c0-2.7,2.7-4.9,6-4.9c3.3,0,6,2.2,6,4.9v24.2
	c0,2.7,2.7,4.9,6,4.9c3.3,0,6-2.2,6-4.9V249c0-2.7,2.7-4.9,6-4.9c3.3,0,6,2.2,6,4.9v12.2c0,2.7,2.7,4.9,6,4.9c3.3,0,6-2.2,6-4.9
	v-0.9c0-2.7,2.7-4.9,6-4.9s6,2.2,6,4.9v26.9c0,2.7,2.7,4.9,6,4.9c3.3,0,6-2.2,6-4.9v-11c0-2.7,2.7-4.9,6-4.9c3.3,0,6,2.2,6,4.9v8.8
	c0,2.7,2.7,4.9,6,4.9s6-2.2,6-4.9v-11.8c0-2.7,2.7-4.9,6-4.9c3.3,0,6,2.2,6,4.9v1.6c0,2.7,2.7,4.9,6,4.9c3.3,0,6-2.2,6-4.9v-13.2
	c0-2.7,2.7-4.9,6-4.9c3.3,0,6,2.2,6,4.9v1.8c0,2.7,2.7,4.9,6,4.9c3.3,0,6-2.2,6-4.9v-13.2c0-2.7,2.7-4.9,6-4.9c3.3,0,6,2.2,6,4.9
	v16.2c0,2.7,2.7,4.9,6,4.9c3.3,0,6-2.2,6-4.9v-21.3c0-2.7,2.7-4.9,6-4.9c3.3,0,6,2.2,6,4.9v11.4c0,2.7,2.7,4.9,6,4.9
	c3.3,0,6-2.2,6-4.9v-4.8c0-2.7,2.7-4.9,6-4.9c2.8,0,5.1,1.5,5.8,3.6v18.9c0,2.7,2.7,4.9,6.1,4.9c3.4,0,6.1-2.2,6.1-4.9v-11.1
	c0-2.7,2.7-4.9,6-4.9c3.3,0,6,2.2,6,4.9v2.2c0,2.7,2.7,4.9,6,4.9c3.3,0,6-2.2,6-4.9v-22.1c0-2.7,2.7-4.9,6-4.9c3.3,0,6,2.2,6,4.9v5
	c0,2.7,2.7,4.9,6,4.9c3.3,0,6-2.2,6-4.9v-14.9c0-2.7,2.7-4.9,6-4.9c3.3,0,6,2.2,6,4.9v29.4c0,2.7,2.7,4.9,6,4.9c3.3,0,6-2.2,6-4.9
	v-15c0-2.7,2.7-4.9,6-4.9c3.3,0,6,2.2,6,4.9v21.3c0,2.7,2.7,4.9,6,4.9c3.3,0,6-2.2,6-4.9v-9c0-2.7,2.7-4.9,6-4.9c3.3,0,6,2.2,6,4.9
	v1c0,2.7,2.7,4.9,6,4.9c3.3,0,6-2.2,6-4.9v-5.7c0-2.7,2.7-4.9,6-4.9c3.3,0,6,2.2,6,4.9v15.3c0-2.7,2.7-4.9,6-4.9c3.3,0,6,2.2,6,4.9
	v17c0,2.7,2.7,4.9,6,4.9c3.3,0,6-2.2,6-4.9v-21.8c0-2.7,2.7-4.9,6-4.9c3.3,0,6,2.2,6,4.9v16.2c0,2.7,2.7,4.9,6,4.9
	c3.3,0,6-2.2,6-4.9v-3.9c0-2.7,2.7-4.9,6-4.9c3.3,0,6,2.2,6,4.9V294c0,2.7,2.7,4.9,6,4.9c3.3,0,6-2.2,6-4.9v-6.3
	c0-2.7,2.7-4.9,6-4.9c3.3,0,6,2.2,6,4.9v10.6c0,2.7,2.7,4.9,6,4.9c3.3,0,6-2.2,6-4.9v-20.5c0-2.7,2.7-4.9,6-4.9c3.3,0,6,2.2,6,4.9
	v10.8c0,2.7,2.7,4.9,6,4.9c3.3,0,6-2.2,6-4.9v-30.7c0-2.7,2.7-4.9,6-4.9c3.3,0,6,2.2,6,4.9v18.5c0,2.7,2.7,4.9,6,4.9
	c3.3,0,6-2.2,6-4.9v-12.1c0-2.7,2.7-4.9,6-4.9c3.3,0,6,2.2,6,4.9V289c0,2.7,2.7,4.9,6,4.9c3.3,0,6-2.2,6-4.9v-18.2
	c0-2.7,2.7-4.9,6-4.9c3.3,0,6,2.2,6,4.9v3.8c0,2.7,2.7,4.9,6,4.9c3.3,0,6-2.2,6-4.9v-8.9c0-2.7,2.7-4.9,6-4.9c3.3,0,6,2.2,6,4.9
	v10.6c0,2.7,2.7,4.9,6,4.9c3.3,0,6-2.2,6-4.9v-22.1c0-2.7,2.7-4.9,6-4.9c3.3,0,6,2.2,6,4.9v14.5c0,2.7,2.7,4.9,6,4.9
	c3.3,0,6-2.2,6-4.9v-26.1c0-2.7,2.7-4.9,6-4.9c3.3,0,6,2.2,6,4.9v-0.6c0,2.7,2.7,4.9,6,4.9c3.3,0,6-2.2,6-4.9v-2.4
	c0-2.7,2.7-4.9,6-4.9c3.3,0,6,2.2,6,4.9v17.4c0,2.7,2.7,4.9,6,4.9c3.3,0,6-2.2,6-4.9v-1.5c0-2.7,2.7-4.9,6-4.9c3.3,0,6,2.2,6,4.9
	v20.7c0,2.7,2.7,4.9,6,4.9c3.3,0,6-2.2,6-4.9V267c0-2.7,2.7-4.9,6-4.9c3.3,0,6,2.2,6,4.9v4.1c0,2.7,2.7,4.9,6,4.9c3.3,0,6-2.2,6-4.9
	v-1.6c0-2.7,2.7-4.9,6-4.9c3.3,0,6,2.2,6,4.9v26.9c0,2.7,2.7,4.9,6,4.9c3.3,0,6-2.2,6-4.9v-34.2c0-2.7,2.7-4.9,6-4.9
	C1553.1,257.2,1555.8,259.5,1555.8,262.1z"/>
<path class="st1" d="M1549.8,257.3c-3.3,0-6,2.2-6,4.9v34.2c0,2.7-2.7,4.9-6,4.9c-3.3,0-6-2.2-6-4.9v-26.9c0-2.7-2.7-4.9-6-4.9
	c-3.3,0-6,2.2-6,4.9v1.6c0,2.7-2.7,4.9-6,4.9c-3.3,0-6-2.2-6-4.9v-4.1c0-2.7-2.7-4.9-6-4.9c-3.3,0-6,2.2-6,4.9v9.4
	c0,2.7-2.7,4.9-6,4.9c-3.3,0-6-2.2-6-4.9v-20.7c0-2.7-2.7-4.9-6-4.9c-3.3,0-6,2.2-6,4.9v1.5c0,2.7-2.7,4.9-6,4.9c-3.3,0-6-2.2-6-4.9
	v-17.4c0-2.7-2.7-4.9-6-4.9c-3.3,0-6,2.2-6,4.9v2.4c0,2.7-2.7,4.9-6,4.9c-3.3,0-6-2.2-6-4.9v0.5c0-2.7-2.7-4.9-6-4.9s-6,2.2-6,4.9
	v26.1c0,2.7-2.7,4.9-6,4.9s-6-2.2-6-4.9v-14.5c0-2.7-2.7-4.9-6-4.9s-6,2.2-6,4.9v22c0,2.7-2.7,4.9-6,4.9s-6-2.2-6-4.9v-10.6
	c0-2.7-2.7-4.9-6-4.9s-6,2.2-6,4.9v8.9c0,2.7-2.7,4.9-6,4.9s-6-2.2-6-4.9v-3.8c0-2.7-2.7-4.9-6-4.9s-6,2.2-6,4.9V289
	c0,2.7-2.7,4.9-6,4.9s-6-2.2-6-4.9v-24.8c0-2.7-2.7-4.9-6-4.9c-3.3,0-6,2.2-6,4.9v12.1c0,2.7-2.7,4.9-6,4.9s-6-2.2-6-4.9v-18.5
	c0-2.7-2.7-4.9-6-4.9s-6,2.2-6,4.9v30.7c0,2.7-2.7,4.9-6,4.9s-6-2.2-6-4.9v-10.8c0-2.7-2.7-4.9-6-4.9s-6,2.2-6,4.9v20.5
	c0,2.7-2.7,4.9-6,4.9s-6-2.2-6-4.9v-10.6c0-2.7-2.7-4.9-6-4.9s-6,2.2-6,4.9v6.3c0,2.7-2.7,4.9-6,4.9c-3.3,0-6-2.2-6-4.9v-20.7
	c0-2.7-2.7-4.9-6-4.9s-6,2.2-6,4.9v3.9c0,2.7-2.7,4.9-6,4.9c-3.3,0-6-2.2-6-4.9v-16.2c0-2.7-2.7-4.9-6-4.9s-6,2.2-6,4.9v21.8
	c0,2.7-2.7,4.9-6,4.9s-6-2.2-6-4.9v-17c0-2.7-2.7-4.9-6-4.9s-6,2.2-6,4.9v-15.4c0-2.7-2.7-4.9-6-4.9s-6,2.2-6,4.9v5.7
	c0,2.7-2.7,4.9-6,4.9c-3.3,0-6-2.2-6-4.9v-0.9c0-2.7-2.7-4.9-6-4.9c-3.3,0-6,2.2-6,4.9v8.9c0,2.7-2.7,4.9-6,4.9s-6-2.2-6-4.9v-21.3
	c0-2.7-2.7-4.9-6-4.9s-6,2.2-6,4.9v15c0,2.7-2.7,4.9-6,4.9c-3.3,0-6-2.2-6-4.9v-29.4c0-2.7-2.7-4.9-6-4.9s-6,2.2-6,4.9v14.9
	c0,2.7-2.7,4.9-6,4.9s-6-2.2-6-4.9v-5c0-2.7-2.7-4.9-6-4.9s-6,2.2-6,4.9v22.1c0,2.7-2.7,4.9-6,4.9s-6-2.2-6-4.9v-2.2
	c0-2.7-2.7-4.9-6-4.9s-6,2.2-6,4.9v11.2c0,2.7-2.7,4.9-6.1,4.9c-3.4,0-6.1-2.2-6.1-4.9v-18.9c-0.7-2.1-3-3.6-5.8-3.6
	c-3.3,0-6,2.2-6,4.9v4.8c0,2.7-2.7,4.9-6,4.9c-3.3,0-6-2.2-6-4.9v-11.4c0-2.7-2.7-4.9-6-4.9c-3.3,0-6,2.2-6,4.9v-2.7l0,0v24
	c0,2.7-2.7,4.9-6,4.9c-3.3,0-6-2.2-6-4.9v-16.2c0-2.7-2.7-4.9-6-4.9c-3.3,0-6,2.2-6,4.9v13.2c0,2.7-2.7,4.9-6,4.9
	c-3.3,0-6-2.2-6-4.9v-1.8c0-2.7-2.7-4.9-6-4.9c-3.3,0-6,2.2-6,4.9v13.2c0,2.7-2.7,4.9-6,4.9c-3.3,0-6-2.2-6-4.9v-1.6
	c0-2.7-2.7-4.9-6-4.9c-3.3,0-6,2.2-6,4.9v11.8c0,2.7-2.7,4.9-6,4.9c-3.3,0-6-2.2-6-4.9v-8.8c0-2.7-2.7-4.9-6-4.9c-3.3,0-6,2.2-6,4.9
	v11c0,2.7-2.7,4.9-6,4.9c-3.3,0-6-2.2-6-4.9v-26.9c0-2.7-2.7-4.9-6-4.9c-3.3,0-6,2.2-6,4.9v0.9c0,2.7-2.7,4.9-6,4.9
	c-3.3,0-6-2.2-6-4.9V249c0-2.7-2.7-4.9-6-4.9c-3.3,0-6,2.2-6,4.9v21.8c0,2.7-2.7,4.9-6,4.9c-3.3,0-6-2.2-6-4.9v-24.3
	c0-2.7-2.7-4.9-6-4.9c-3.3,0-6,2.2-6,4.9V259c0,2.7-2.7,4.9-6,4.9c-3.3,0-6-2.2-6-4.9v-5.1c0-2.7-2.7-4.9-6-4.9c-3.3,0-6,2.2-6,4.9
	v-15.7c0-2.7-2.7-4.9-6-4.9c-3.3,0-6,2.2-6,4.9v17c0,2.7-2.7,4.9-6,4.9c-3.3,0-6-2.2-6-4.9v-21.8c0-2.7-2.7-4.9-6-4.9
	c-3.3,0-6,2.2-6,4.9v16.2c0,2.7-2.7,4.9-6,4.9c-3.3,0-6-2.2-6-4.9v-3.9c0-2.7-2.7-4.9-6-4.9c-3.3,0-6,2.2-6,4.9v20.7
	c0,2.7-2.7,4.9-6,4.9c-3.3,0-6-2.2-6-4.9v-6.3c0-2.7-2.7-4.9-6-4.9c-3.3,0-6,2.2-6,4.9v10.6c0,2.7-2.7,4.9-6,4.9c-3.3,0-6-2.2-6-4.9
	v-20.5c0-2.7-2.7-4.9-6-4.9c-3.3,0-6,2.2-6,4.9v10.8c0,2.7-2.7,4.9-6,4.9c-3.3,0-6-2.2-6-4.9v-30.7c0-2.7-2.7-4.9-6-4.9
	c-3.3,0-6,2.2-6,4.9v18.5c0,2.7-2.7,4.9-6,4.9c-3.3,0-6-2.2-6-4.9v-12.1c0-2.7-2.7-4.9-6-4.9c-3.3,0-6,2.2-6,4.9v24.7
	c0,2.7-2.7,4.9-6,4.9c-3.3,0-6-2.2-6-4.9v-18.2c0-2.7-2.7-4.9-6-4.9c-3.3,0-6,2.2-6,4.9v3.8c0,2.7-2.7,4.9-6,4.9c-3.3,0-6-2.2-6-4.9
	v-8.9c0-2.7-2.7-4.9-6-4.9c-3.3,0-6,2.2-6,4.9v10.6c0,2.7-2.7,4.9-6,4.9c-3.3,0-6-2.2-6-4.9v-22c0-2.7-2.7-4.9-6-4.9
	c-3.3,0-6,2.2-6,4.9v14.5c0,2.7-2.7,4.9-6,4.9s-6-2.2-6-4.9v-26.1c0-2.7-2.7-4.9-6-4.9c-3.3,0-6,2.2-6,4.9v-0.5c0,2.7-2.7,4.9-6,4.9
	c-3.3,0-6-2.2-6-4.9v-2.4c0-2.7-2.7-4.9-6-4.9c-3.3,0-6,2.2-6,4.9v17.4c0,2.7-2.7,4.9-6,4.9c-3.3,0-6-2.2-6-4.9v-1.5
	c0-2.7-2.7-4.9-6-4.9c-3.3,0-6,2.2-6,4.9v20.7c0,2.7-2.7,4.9-6,4.9c-3.3,0-6-2.2-6-4.9v-9.4c0-2.7-2.7-4.9-6-4.9s-6,2.2-6,4.9v4.1
	c0,2.7-2.7,4.9-6,4.9s-6-2.2-6-4.9V242c0-2.7-2.7-4.9-6-4.9c-3.3,0-6,2.2-6,4.9v26.9c0,2.7-2.7,4.9-6,4.9s-6-2.2-6-4.9v-34.2
	c0-2.7-2.7-4.9-6-4.9s-6,2.2-6,4.9v63.6c0,2.7,2.7,4.9,6,4.9s6-2.2,6-4.9v-5.1c0-2.7,2.7-4.9,6-4.9s6,2.2,6,4.9v12.4
	c0,2.7,2.7,4.9,6,4.9c3.3,0,6-2.2,6-4.9v-24.3c0-2.7,2.7-4.9,6-4.9s6,2.2,6,4.9v21.8c0,2.7,2.7,4.9,6,4.9s6-2.2,6-4.9v-12.2
	c0-2.7,2.7-4.9,6-4.9c3.3,0,6,2.2,6,4.9v0.9c0,2.7,2.7,4.9,6,4.9c3.3,0,6-2.2,6-4.9v-26.9c0-2.7,2.7-4.9,6-4.9c3.3,0,6,2.2,6,4.9v11
	c0,2.7,2.7,4.9,6,4.9c3.3,0,6-2.2,6-4.9v-8.8c0-2.7,2.7-4.9,6-4.9c3.3,0,6,2.2,6,4.9v11.8c0,2.7,2.7,4.9,6,4.9c3.3,0,6-2.2,6-4.9
	v-1.6c0-2.7,2.7-4.9,6-4.9s6,2.2,6,4.9v13.2c0,2.7,2.7,4.9,6,4.9c3.3,0,6-2.2,6-4.9v-1.8c0-2.7,2.7-4.9,6-4.9c3.3,0,6,2.2,6,4.9
	v13.2c0,2.7,2.7,4.9,6,4.9c3.3,0,6-2.2,6-4.9v-16.2c0-2.7,2.7-4.9,6-4.9c3.3,0,6,2.2,6,4.9v23.9v-2.7c0,2.7,2.7,4.9,6,4.9
	c3.3,0,6-2.2,6-4.9v-11.4c0-2.7,2.7-4.9,6-4.9c3.3,0,6,2.2,6,4.9v4.8c0,2.7,2.7,4.9,6,4.9c2.8,0,5.1-1.5,5.8-3.6v-18.9
	c0-2.7,2.7-4.9,6.1-4.9c3.4,0,6.1,2.2,6.1,4.9V294c0,2.7,2.7,4.9,6,4.9c3.3,0,6-2.2,6-4.9v-2.2c0-2.7,2.7-4.9,6-4.9
	c3.3,0,6,2.2,6,4.9v22.1c0,2.7,2.7,4.9,6,4.9c3.3,0,6-2.2,6-4.9v-5c0-2.7,2.7-4.9,6-4.9c3.3,0,6,2.2,6,4.9v14.9c0,2.7,2.7,4.9,6,4.9
	c3.3,0,6-2.2,6-4.9v-29.4c0-2.7,2.7-4.9,6-4.9c3.3,0,6,2.2,6,4.9v15c0,2.7,2.7,4.9,6,4.9c3.3,0,6-2.2,6-4.9V288c0-2.7,2.7-4.9,6-4.9
	c3.3,0,6,2.2,6,4.9v8.9c0,2.7,2.7,4.9,6,4.9c3.3,0,6-2.2,6-4.9v-0.9c0-2.7,2.7-4.9,6-4.9c3.3,0,6,2.2,6,4.9v5.7c0,2.7,2.7,4.9,6,4.9
	c3.3,0,6-2.2,6-4.9v15.7c0,2.7,2.7,4.9,6,4.9c3.3,0,6-2.2,6-4.9v-34.2c0-2.7,2.7-4.9,6-4.9c3.3,0,6,2.2,6,4.9v26.9
	c0,2.7,2.7,4.9,6,4.9c3.3,0,6-2.2,6-4.9v-1.6c0-2.7,2.7-4.9,6-4.9c3.3,0,6,2.2,6,4.9v4.1c0,2.7,2.7,4.9,6,4.9c3.3,0,6-2.2,6-4.9
	v-9.4c0-2.7,2.7-4.9,6-4.9c3.3,0,6,2.2,6,4.9v20.7c0,2.7,2.7,4.9,6,4.9c3.3,0,6-2.2,6-4.9v-1.5c0-2.7,2.7-4.9,6-4.9
	c3.3,0,6,2.2,6,4.9v17.4c0,2.7,2.7,4.9,6,4.9c3.3,0,6-2.2,6-4.9v-2.4c0-2.7,2.7-4.9,6-4.9c3.3,0,6,2.2,6,4.9v-0.5
	c0,2.7,2.7,4.9,6,4.9c3.3,0,6-2.2,6-4.9v-26.1c0-2.7,2.7-4.9,6-4.9c3.3,0,6,2.2,6,4.9v14.5c0,2.7,2.7,4.9,6,4.9c3.3,0,6-2.2,6-4.9
	v-22c0-2.7,2.7-4.9,6-4.9c3.3,0,6,2.2,6,4.9v10.6c0,2.7,2.7,4.9,6,4.9c3.3,0,6-2.2,6-4.9v-8.9c0-2.7,2.7-4.9,6-4.9
	c3.3,0,6,2.2,6,4.9v3.8c0,2.7,2.7,4.9,6,4.9c3.3,0,6-2.2,6-4.9v-18.2c0-2.7,2.7-4.9,6-4.9c3.3,0,6,2.2,6,4.9v24.7
	c0,2.7,2.7,4.9,6,4.9c3.3,0,6-2.2,6-4.9v-12.1c0-2.7,2.7-4.9,6-4.9s6,2.2,6,4.9v18.5c0,2.7,2.7,4.9,6,4.9c3.3,0,6-2.2,6-4.9v-30.7
	c0-2.7,2.7-4.9,6-4.9c3.3,0,6,2.2,6,4.9v10.8c0,2.7,2.7,4.9,6,4.9s6-2.2,6-4.9v-20.5c0-2.7,2.7-4.9,6-4.9s6,2.2,6,4.9V292
	c0,2.7,2.7,4.9,6,4.9s6-2.2,6-4.9v-6.3c0-2.7,2.7-4.9,6-4.9c3.3,0,6,2.2,6,4.9v20.7c0,2.7,2.7,4.9,6,4.9s6-2.2,6-4.9v-3.9
	c0-2.7,2.7-4.9,6-4.9s6,2.2,6,4.9v16.2c0,2.7,2.7,4.9,6,4.9c3.3,0,6-2.2,6-4.9v-21.8c0-2.7,2.7-4.9,6-4.9c3.3,0,6,2.2,6,4.9v17
	c0,2.7,2.7,4.9,6,4.9s6-2.2,6-4.9v15.4c0,2.7,2.7,4.9,6,4.9s6-2.2,6-4.9v-5.7c0-2.7,2.7-4.9,6-4.9c3.3,0,6,2.2,6,4.9v0.9
	c0,2.7,2.7,4.9,6,4.9s6-2.2,6-4.9v-8.9c0-2.7,2.7-4.9,6-4.9s6,2.2,6,4.9v21.3c0,2.7,2.7,4.9,6,4.9s6-2.2,6-4.9v-15
	c0-2.7,2.7-4.9,6-4.9c3.3,0,6,2.2,6,4.9v29.4c0,2.7,2.7,4.9,6,4.9s6-2.2,6-4.9v-14.9c0-2.7,2.7-4.9,6-4.9s6,2.2,6,4.9v5
	c0,2.7,2.7,4.9,6,4.9s6-2.2,6-4.9v-22.1c0-2.7,2.7-4.9,6-4.9s6,2.2,6,4.9v2.2c0,2.7,2.7,4.9,6,4.9s6-2.2,6-4.9v-11.2
	c0-2.7,2.7-4.9,6.1-4.9s6.1,2.2,6.1,4.9v18.9c0.7,2.1,3,3.6,5.8,3.6c3.3,0,6-2.2,6-4.9v-4.8c0-2.7,2.7-4.9,6-4.9s6,2.2,6,4.9v11.4
	c0,2.7,2.7,4.9,6,4.9s6-2.2,6-4.9v2.7v-24c0-2.7,2.7-4.9,6-4.9s6,2.2,6,4.9v16.2c0,2.7,2.7,4.9,6,4.9c3.3,0,6-2.2,6-4.9v-13.2
	c0-2.7,2.7-4.9,6-4.9s6,2.2,6,4.9v1.8c0,2.7,2.7,4.9,6,4.9s6-2.2,6-4.9v-13.2c0-2.7,2.7-4.9,6-4.9s6,2.2,6,4.9v1.6
	c0,2.7,2.7,4.9,6,4.9s6-2.2,6-4.9v-5.5v0v-6.3c0-2.7,2.7-4.9,6-4.9c3.3,0,6,2.2,6,4.9v8.8c0,2.7,2.7,4.9,6,4.9s6-2.2,6-4.9v-11
	c0-2.7,2.7-4.9,6-4.9c3.3,0,6,2.2,6,4.9v26.9c0,2.7,2.7,4.9,6,4.9c3.3,0,6-2.2,6-4.9v-0.9c0-2.7,2.7-4.9,6-4.9s6,2.2,6,4.9v12.2
	c0,2.7,2.7,4.9,6,4.9c3.3,0,6-2.2,6-4.9v-21.8c0-2.7,2.7-4.9,6-4.9c3.3,0,6,2.2,6,4.9v24.3c0,2.7,2.7,4.9,6,4.9s6-2.2,6-4.9v-12.4
	c0-2.7,2.7-4.9,6-4.9c3.3,0,6,2.2,6,4.9v5.1c0,2.7,2.7,4.9,6,4.9c3.3,0,6-2.2,6-4.9v-63.6C1555.8,259.4,1553.1,257.3,1549.8,257.3
	L1549.8,257.3z"/>
<g>
	<path class="st2" d="M1633.5,549.8l-1.3-0.1l0.2-0.9c0.3-1.3,0.4-2.6,0.4-3.9c0-2.3-0.4-4.7-1.3-7.1l-0.2-0.6l0.7-0.4
		c3.6-2,5.7-5,5.7-8.3c0-5.8-6.4-10.4-14.4-10.4c-1.5,0-3.1,0.2-4.6,0.6l-1.4,0.4l-0.3-1.1c-1-3.9-5.6-6.8-11.1-6.8
		c-4.3,0-8.2,1.8-10.1,4.6l-0.4,0.5l-1.5,0c-0.2,0-0.5,0-0.7,0c-21.8,0-39.6,12.9-39.6,28.7v1.1l-1.5,0c-3.6-0.4-7.3,0-10.7,1.2
		l-1.1,0.4l-0.6-0.8c-2.7-3.6-7.8-5.9-13.5-5.9c-8.4,0-15.3,5-15.3,11.1c0,1,0.2,1.9,0.5,2.9h133.1
		C1642,552.1,1638,550.3,1633.5,549.8L1633.5,549.8z"/>
	<path class="st2" d="M1512.8,386.3c-2.2,0-4.4,0.5-6.2,1.5l-1.5,0.8l-0.5-1.3c-1.8-4.7-7.6-7.9-14.3-7.9h-1.1l-0.4-0.7
		c-2.5-8.4-12.9-14.5-24.7-14.5c-13.9,0-25.3,8.2-25.3,18.4c0,0.8,0.1,1.7,0.3,2.7l0.2,1.1l-1.5,0c-7.6,0-13.8,4.1-14.6,9.5h99.8
		c0.2-0.6,0.3-1.2,0.3-1.8C1523.4,389.8,1518.7,386.3,1512.8,386.3L1512.8,386.3z"/>
	<path class="st2" d="M1085.2,416h19.6c-0.5-6.2-7.6-11.1-16.1-11.1c-0.9,0-1.9,0.1-2.9,0.2l-1.4,0.2l-0.1-1.1
		c-0.9-8.7-11-15.5-23-15.5c-11.6,0-21.4,6.3-22.9,14.6l-0.2,1.3l-1.6-0.5c-2.5-0.8-5.1-1.2-7.7-1.2c-7.1,0-13.6,2.9-16.9,7.5
		l-0.6,0.8l-1.1-0.4c-1.2-0.4-2.5-0.6-3.8-0.6c-4.6,0-8.5,2.5-9.1,5.7L1085.2,416L1085.2,416L1085.2,416z"/>
	<path class="st2" d="M562.5,466.4c-2.2,0-4.4,0.5-6.2,1.5l-1.5,0.8l-0.5-1.3c-1.8-4.7-7.6-7.9-14.3-7.9h-1.1l-0.4-0.7
		c-2.5-8.4-12.9-14.5-24.7-14.5c-13.9,0-25.3,8.2-25.3,18.4c0,0.8,0.1,1.7,0.3,2.7l0.2,1.1l-1.5,0c-7.6,0-13.7,4.1-14.6,9.5h99.8
		c0.2-0.6,0.3-1.2,0.3-1.8C573.1,469.9,568.3,466.4,562.5,466.4L562.5,466.4z"/>
	<path class="st2" d="M386.5,604.4h19.6c-0.5-6.2-7.6-11.1-16.1-11.1c-0.9,0-1.9,0.1-2.9,0.2l-1.4,0.2l-0.1-1
		c-0.9-8.7-11-15.5-23-15.5c-11.6,0-21.4,6.3-22.9,14.6l-0.2,1.3l-1.6-0.5c-2.5-0.8-5.1-1.2-7.7-1.2c-7.1,0-13.6,2.9-16.8,7.5
		l-0.6,0.8l-1.1-0.4c-1.2-0.4-2.5-0.6-3.8-0.6c-4.6,0-8.5,2.5-9.1,5.7L386.5,604.4L386.5,604.4z"/>
	<path class="st2" d="M387.7,394.8l-1.3-0.1l0.2-0.9c0.3-1.5,0.4-2.7,0.4-3.9c0-2.3-0.4-4.7-1.3-7.1l-0.2-0.6l0.7-0.4
		c3.6-2,5.7-5,5.7-8.3c0-5.8-6.5-10.5-14.4-10.5c-1.6,0-3.1,0.2-4.6,0.6l-1.4,0.4l-0.3-1.1c-1-3.9-5.6-6.8-11.1-6.8
		c-4.3,0-8.2,1.8-10.1,4.6l-0.4,0.6l-1.5,0c-0.2,0-0.5,0-0.7,0c-21.8,0-39.6,12.9-39.6,28.7v1.1l-1.5,0c-3.6-0.4-7.3,0-10.8,1.2
		l-1.1,0.4l-0.6-0.8c-2.7-3.6-7.8-5.9-13.5-5.9c-8.4,0-15.3,5-15.3,11.1c0,1,0.2,1.9,0.5,2.9h133.1
		C396.2,397,392.2,395.2,387.7,394.8z"/>
</g>
<path class="st1" d="M1611.7,554.8h-100.1c-0.3-0.9-0.5-1.9-0.5-2.9c0-6.1,6.8-11.1,15.3-11.1c5.7,0,10.8,2.3,13.5,5.9l0.6,0.8
	l1.1-0.4c3.4-1.2,7.1-1.6,10.7-1.2l1.5,0v-1.1c0-15.8,17.7-28.7,39.6-28.7c0.2,0,0.5,0,0.7,0l1.5,0l0.4-0.5
	c1.9-2.8,5.8-4.6,10.1-4.6c5.5,0,10.2,2.9,11.1,6.8l0.3,1.1l1.4-0.4c1.5-0.4,3.1-0.6,4.6-0.6c7.9,0,14.4,4.7,14.4,10.4
	c0,3.3-2.1,6.3-5.7,8.3l-0.7,0.4l0.2,0.6c0.8,2.4,1.3,4.8,1.3,7.1c0,1.3-0.2,2.6-0.4,3.9l-0.2,0.9l1.3,0.1c4.5,0.5,8.5,2.3,11.1,4.9
	L1611.7,554.8L1611.7,554.8z"/>
<path class="st1" d="M1480.6,395.8h-57.3c0.9-5.4,7-9.5,14.6-9.5l1.5,0l-0.2-1.1c-0.2-0.9-0.3-1.8-0.3-2.7
	c0-10.1,11.3-18.4,25.3-18.4c11.8,0,22.2,6.1,24.7,14.5l0.4,0.7h1.1c6.7,0,12.5,3.3,14.3,7.9l0.5,1.3l1.5-0.8c1.9-1,4-1.5,6.2-1.5
	c5.8,0,10.6,3.5,10.6,7.7c0,0.6-0.1,1.2-0.3,1.8L1480.6,395.8L1480.6,395.8z"/>
<path class="st1" d="M1006.4,410.2c1.3,0,2.6,0.2,3.8,0.6l1.1,0.4l0.6-0.8c3.3-4.6,9.7-7.5,16.9-7.5c2.7,0,5.3,0.4,7.7,1.2l1.6,0.5
	l0.2-1.3c1.5-8.3,11.3-14.6,22.9-14.6c12,0,22.1,6.8,23,15.5l0.1,1.1l1.4-0.2c1-0.1,1.9-0.2,2.9-0.2c8.6,0,15.6,4.9,16.2,11.1H997.3
	C997.9,412.7,1001.7,410.2,1006.4,410.2L1006.4,410.2z"/>
<path class="st1" d="M530.2,475.9H473c0.9-5.4,7-9.5,14.6-9.5l1.5,0l-0.2-1.1c-0.2-0.9-0.3-1.8-0.3-2.7c0-10.1,11.3-18.4,25.3-18.4
	c11.8,0,22.2,6.1,24.7,14.5l0.4,0.7h1.1c6.7,0,12.5,3.3,14.3,7.9l0.5,1.3l1.5-0.8c1.9-1,4-1.5,6.2-1.5c5.8,0,10.6,3.5,10.6,7.7
	c0,0.6-0.1,1.2-0.3,1.8L530.2,475.9L530.2,475.9z"/>
<path class="st1" d="M307.7,598.7c1.3,0,2.6,0.2,3.8,0.6l1.1,0.4l0.6-0.8c3.3-4.6,9.7-7.5,16.8-7.5c2.7,0,5.3,0.4,7.7,1.2l1.6,0.5
	l0.2-1.3c1.5-8.3,11.3-14.6,22.9-14.6c12,0,22.1,6.8,23,15.5l0.1,1l1.4-0.2c1-0.1,1.9-0.2,2.9-0.2c8.6,0,15.6,4.9,16.1,11.1H298.6
	C299.3,601.2,303.1,598.7,307.7,598.7L307.7,598.7z"/>
<path class="st1" d="M365.8,399.7H265.7c-0.3-0.9-0.5-1.9-0.5-2.9c0-6.1,6.8-11.1,15.3-11.1c5.7,0,10.8,2.3,13.5,5.9l0.6,0.8
	l1.1-0.4c3.4-1.2,7.1-1.6,10.8-1.2l1.5,0v-1.1c0-15.8,17.7-28.7,39.6-28.7c0.2,0,0.5,0,0.7,0l1.5,0l0.4-0.5
	c1.9-2.8,5.8-4.6,10.1-4.6c5.5,0,10.2,2.9,11.1,6.8l0.3,1.1l1.4-0.4c1.5-0.4,3.1-0.6,4.6-0.6c7.9,0,14.4,4.7,14.4,10.5
	c0,3.3-2.1,6.3-5.7,8.3l-0.7,0.4l0.2,0.6c0.8,2.4,1.3,4.8,1.3,7.1c0,1.2-0.1,2.4-0.4,3.9l-0.2,0.9l1.3,0.1c4.5,0.5,8.5,2.3,11.1,4.9
	H365.8z"/>
<path class="st3" d="M989.3,492.2h16.4 M696,447.7h37.6 M311.5,495.7h55.4 M380.8,495.7h12.5 M1510.1,466.5h41.5 M1556.7,466.5h16.2
	 M1281.5,427h50 M1341,427h19.2 M365.5,646.2h81.7 M463.8,646.2h18.4 M1465.6,530.6h-52.8 M1402.5,530.6h-18 M1636.1,647.6h-52.8
	 M1573.1,647.6h-18 M931.8,492.2h46"/>
<path class="st2" d="M1374.7,620.1l-10.5,14.4l-15.3-27.9l-11.5,35.3l-19-38.8l-12.6,15.3c0,0-3.1-11.3-6-22.8l28.1-37L1374.7,620.1
	L1374.7,620.1z M1242.9,507.2l-12.4,32.3l-28.7-59.8l-16.5,30.5l-19.4-47.5l-26.7,76.8l-8.6-38.7l54.6-117.3L1242.9,507.2z
	 M1117.1,557.6L1117.1,557.6l-6.5,13.6l-32.2-31.7l-18.4,19l-9.9-17.1l-36.2,29.8l-5-20.1l51.1-55.4l48.5,52.5L1117.1,557.6z
	 M892.8,503.7L880.6,523l-31.4-40.2l-13.5,36.1l-20.2-54.5l-30.5,46.1l-8.6-21.4l-19.7,52.1L744.6,493l71-121.2L892.8,503.7z
	 M659.1,553.4l-12.6,32.3l-21.2-63.9l-16.1,48.5l-7.2-31.7l-16.1,47.1c0,0-4.6-15.5-10-34.6v0l41.1-88.3L659.1,553.4L659.1,553.4z"
	/>
<g>
	<path class="st4" d="M1430.9,694.1c-32.7-2.1-67.3-3.8-103.3-5l-37.5-80.6l9.8-13c2.9,11.5,6,22.8,6,22.8l12.6-15.3l19,38.8
		l11.5-35.3l15.3,27.9l10.5-14.4L1430.9,694.1L1430.9,694.1z"/>
	<path class="st4" d="M1327.6,689.1c-30.1-1-60.2-1.5-90.4-1.5l-4-4.3l-105.1-113.9v0l-11-11.8l-8.6-9.3l22.1-47.5l8.6,38.7
		l26.7-76.8l19.4,47.5l16.5-30.5l28.7,59.8l12.4-32.3l47.1,101.2L1327.6,689.1z"/>
	<path class="st4" d="M1237.2,687.6c-2.4,0-4.8,0-7.2,0c-24.1,0-48.3,0.5-72.4,1.3c-38.1,1.2-77.3,3.4-117.3,6.1
		c-11.2,0.7-22.6,1.5-34,2.4l-51.4-87.7l54-58.5l5,20.1l36.2-29.8l9.9,17.1l18.4-19l32.2,31.7l6.5-13.6l116.1,125.7L1237.2,687.6
		L1237.2,687.6z"/>
	<path class="st4" d="M1006.3,697.4c-41.4,3-83.8,6.5-126.9,10c-4.4-0.5-8.9-1-13.4-1.5c-45.3-5-92.9-9.4-141.9-12.9l-42.8-92v0
		l63.3-108l12.2,48.1l19.7-52.1l8.6,21.4l30.5-46.1l20.2,54.5l13.5-36.1l31.4,40.2l12.2-19.3L1006.3,697.4L1006.3,697.4z"/>
	<path class="st4" d="M681.3,601.1L681.3,601.1l-22.2-47.7l-12.6,32.3l-21.2-63.9l-16.1,48.5l-6.8-29.9c-0.3,0-0.7,0-1.1,0.1
		l-15.5,45.2c0,0-4.6-15.5-10-34.6l-62.3,133.8c39.3,0.2,78.5,1.3,117,2.9c31.6,1.4,62.9,3.1,93.6,5.3l0,0L681.3,601.1z"/>
</g>
<g>
	<path class="st5" d="M1328.7,559.5c-0.1,0-0.2,0.1-0.3,0.1l20.5,47l-0.6,1.8c0.8,0.8,1.6,1.7,2.3,2.8c1.8,2.8,3.4,5.8,5.3,8.6
		c3.2,4.5,6.1,8.8,7.6,13.8c1.5-1.7,3-3.5,4.5-5.3c2.4-2.9,4.2-5.9,6.5-8.4L1328.7,559.5z"/>
	<path class="st5" d="M1232.4,532.3c2.4-3.2,3.4-7.2,4.6-11c1.4-4.9,3.2-9.7,5.7-14.1c0-0.1,0.1-0.1,0.1-0.2l-57.5-123.6l44.2,152.4
		C1230.5,534.7,1231.5,533.5,1232.4,532.3z"/>
	<path class="st5" d="M886.6,514.6c1.6-3.9,3.5-7.8,6.5-10.5l-77.9-133l65.8,149.4C882.8,518.4,884.9,516.6,886.6,514.6z"/>
	<path class="st5" d="M658,555.5c0.2-0.8,0.5-1.6,1-2.4l-42.1-90.4L650.3,575c0.1-0.2,0.1-0.3,0.2-0.5c1.7-5.5,3.4-12.1,7.3-16.7
		C657.7,557.1,657.8,556.3,658,555.5z"/>
	<path class="st5" d="M1077.8,540.6c1.4,0.6,2.7,1.4,3.9,2.4c6.1,5.1,12.3,10.7,17.8,16.5c2.4,2.6,4.9,5.4,7.7,7.4
		c0.1,0.1,2.2,1.3,3.4,1.8c0.6-0.7,1.5-1.8,2.2-2.2c0.1-0.5,0.2-0.9,0.2-1.4c0.8-3.1,2.2-5.7,4.1-7.8l-56.4-61.1
		c-0.1,0.1-0.1,0.1-0.2,0.2L1077.8,540.6L1077.8,540.6z"/>
</g>
<g>
	<line class="st6" x1="1253.6" y1="617.1" x2="1253.6" y2="631.1"/>
	<line class="st6" x1="1172.7" y1="543.8" x2="1172.7" y2="576.8"/>
	<line class="st6" x1="1172.7" y1="585.1" x2="1172.7" y2="599.1"/>
	<line class="st6" x1="1213.5" y1="612.8" x2="1213.5" y2="645.8"/>
	<line class="st6" x1="1124.5" y1="630.8" x2="1124.5" y2="644.8"/>
	<line class="st6" x1="1143.9" y1="596.1" x2="1143.9" y2="617.1"/>
	<line class="st6" x1="1065.9" y1="593.6" x2="1065.9" y2="626.6"/>
	<line class="st6" x1="1068.5" y1="659.6" x2="1068.5" y2="673.6"/>
	<line class="st6" x1="1021.5" y1="625.6" x2="1021.5" y2="658.6"/>
	<line class="st6" x1="979.5" y1="617.7" x2="979.5" y2="626.4"/>
	<line class="st6" x1="845.8" y1="651.4" x2="845.8" y2="681.8"/>
	<line class="st6" x1="772" y1="608.7" x2="772" y2="639.1"/>
	<line class="st6" x1="724.1" y1="608.7" x2="724.1" y2="648.9"/>
	<line class="st6" x1="824.1" y1="552.7" x2="824.1" y2="568.6"/>
	<line class="st6" x1="824.1" y1="578" x2="824.1" y2="586"/>
	<line class="st6" x1="909.9" y1="634.9" x2="909.9" y2="648.9"/>
	<line class="st6" x1="806.6" y1="533.1" x2="806.6" y2="552.7"/>
	<line class="st6" x1="869.2" y1="550.1" x2="869.2" y2="581.8"/>
	<line class="st6" x1="845.8" y1="630" x2="845.8" y2="644"/>
	<line class="st6" x1="772" y1="578.1" x2="772" y2="592.1"/>
	<line class="st6" x1="623.2" y1="602.1" x2="623.2" y2="634.7"/>
	<line class="st6" x1="637.8" y1="633" x2="637.8" y2="650.6"/>
	<line class="st6" x1="594.1" y1="638.3" x2="594.1" y2="647.4"/>
	<line class="st6" x1="660.4" y1="666.1" x2="660.4" y2="683.8"/>
	<line class="st6" x1="594.1" y1="659.2" x2="594.1" y2="677.4"/>
	<line class="st6" x1="1352.7" y1="655.1" x2="1352.7" y2="676.1"/>
	<path class="st7" d="M1374,619.2c-0.6,1.9-1.8,3.6-3.3,4.9c0,0.2,0,0.4,0.1,0.6c0,0.2,0,0.5,0,0.7c0,1-0.3,1.9-0.7,2.7
		c-0.3,0.4-0.6,0.7-0.9,1.1c-0.4,0.4-0.9,0.7-1.4,1c0,0.1,0,0.1-0.1,0.2c-0.2,0.2-0.3,0.4-0.5,0.7c-0.4,0.4-0.9,0.7-1.4,0.8
		c-0.3,0-0.6,0.1-0.9,0.1c-0.4,0-0.9-0.1-1.2-0.3c-0.4-0.1-0.7-0.4-1-0.7c-0.3-0.3-0.5-0.6-0.7-1c0-0.1,0-0.1-0.1-0.2
		c0-0.1-0.1-0.2-0.1-0.2c-0.1-0.1-0.3-0.2-0.4-0.4c-0.5-0.5-0.9-1.1-1.1-1.8c-0.2-0.4-0.4-0.9-0.4-1.4c-1.7-0.8-3.3-2.2-4.5-4.3
		c-2.4-4.3-4.7-8.2-7.5-12l-10.4,32.2l-19-38.8l-12.6,15.3l-6-22.8l-10.3,11.9l13.1,28.2l14.8-9.6l20,36.7l17.9-28.2l10.4,17.2
		l26.9,41.7l38.2,0.6L1374,619.2z"/>
	<path class="st7" d="M1243.4,508.4c-0.8,1.2-1.6,2.4-2.4,3.6c-0.7,2.7-1.5,5.4-2.7,8.1c-2,4.3-4.2,8.5-6.2,12.8
		c-0.6,1.2-1.8,1.7-3.1,1.5l1.5,5l-2.6-5.4c-0.6-0.3-1.1-0.7-1.4-1.2c-0.9-1.6-1.5-3.4-1.9-5.3c-0.1-0.2-0.2-0.3-0.4-0.5
		c-0.6-0.2-1.1-0.6-1.4-1.2c-1-1.6-1.2-3-1.1-4.6c-0.9-0.5-1.6-1.5-1.7-2.6c-0.1-0.4-0.1-0.9-0.1-1.3l-17.7-36.9
		c-0.3,0.3-0.7,0.5-1.1,0.7l-15.8,29.1L1166,463c-0.1,0-0.1,0-0.2,0l-26.6,76.6l-8.6-38.7l-15.2,32.7l23.8,30.1l25.3-56.3l22.3,24.6
		l16.4-16.1l27.4,55.5l11.3-26l51,142.4l34.7,1.5L1243.4,508.4z"/>
	<path class="st7" d="M892.3,502.6c0.2,0.8,0.2,1.7-0.2,2.5c-1.6,4.2-4.5,8.4-7,12.1c-0.9,1.4-2.6,2.3-4.3,2.6l0.4,0.9l-0.9,1.4
		l-1.9-2.4c-1.2-0.3-2.2-1.1-2.8-2.5c-0.4-0.8-0.7-1.6-1-2.4L850.5,484c-0.8,0.6-1.8,1.2-2.9,1.5L835.4,518l-19.6-52.9
		c-0.5,0-1-0.1-1.4-0.2l-29.6,44.8l-8.2-20.3c-0.3,0.1-0.6,0.1-0.9,0.1l-19.3,50.9l-12.2-48.1l-14.2,24.2l24.6,55.6l23.8-42.2
		l7,13.3l23.1-37.5l25.1,42.1l27.9-27L976,697.4l30.2,0L892.3,502.6z"/>
	<path class="st7" d="M669.3,575.3l-7.8-16.8l-2.8-6c0,0.2-0.1,0.5-0.2,0.7c-1.2,3-2.4,5.8-3.3,8.9c-0.3,1.1-0.8,2.2-1.3,3.3
		c0.1,1.3,0,2.5-0.4,3.7c-0.4,1.1-1,2-1.8,2.7c-0.2,1.2-0.8,2.1-1.6,2.7l1.1,3.8l-4.3,8.2l-21-63.2c-0.3,0.4-0.5,0.8-0.8,1.2
		l-15.5,46.7l-7-30.8c-0.2,0-0.4,0.1-0.5,0.1l-15.8,46.1l-10.4-35.9l-9.6,20.5l19.9,38.8l14.4-24.3l9,14.5l16.1-29l21.2,31.9
		l8.5-10.5l36.9,99.2c0.4,0,0.8,0.1,1.2,0.2c0.2,0,0.4,0,0.6,0c0.3,0,0.6,0,0.9,0.1c0.3,0,0.7,0,1,0.1c0.5-0.1,1-0.1,1.6-0.1
		c0,0,0,0,0,0c0,0,0,0,0,0c0.6,0.1,1.1,0.2,1.7,0.2c0.4,0,0.7-0.1,1.1-0.1c1.1,0,2,0.2,2.9,0.4c0.4,0,0.7-0.1,1.1-0.1
		c1.1,0,2.1,0.1,3,0.4c0.5-0.1,0.9-0.1,1.5-0.1c1,0,1.9,0.1,2.7,0.3h12.5L669.3,575.3z"/>
	<path class="st7" d="M1118,558.5c-0.1,3.7-2.7,7.2-6,8.7c0,0.5-0.1,0.9-0.3,1.4c-0.3,0.6-0.9,1-1.5,1.2c-0.6,0.2-1.4,0.1-2-0.3
		c-0.5-0.3-1.1-0.9-1.2-1.5c0-0.1,0-0.1,0-0.2c-1.5-0.3-3.1-1.1-4.5-2.6c-3-3.1-5.3-7-8.4-10.1c-2.6-2.6-5.8-4.4-8.4-7.1
		c-2.5-2.5-5.1-5-7.5-7.5c-0.2,0.2-0.5,0.3-0.7,0.4l-17.3,17.4l-9.9-17.1l-36.2,29.8l-5-20.1l-10.6,11.5l10.6,32.1l35.4-29.1
		l15.7,15.6l18.4-22.8l40.6,35.4l9-24.5L1118,558.5z"/>
</g>
<g>
	<path class="st8" d="M1374.7,620.1l-10.5,14.4l-15.3-27.9l-11.5,35.3l-19-38.8l-12.6,15.3c0,0-3.1-11.3-6-22.8l28.1-37
		L1374.7,620.1L1374.7,620.1z"/>
	<path class="st9" d="M1290,608.5l9.8-13"/>
	<path class="st10" d="M1430.9,694.1l-56.2-74"/>
	<path class="st11" d="M1242.9,507.2l-12.4,32.3l-28.7-59.8l-16.5,30.5l-19.4-47.5l-26.7,76.8l-8.6-38.7l54.6-117.3L1242.9,507.2
		L1242.9,507.2z"/>
	<path class="st12" d="M1108.5,548.3l22.1-47.5"/>
	<path class="st13" d="M1327.6,689.1l-37.5-80.6l-47.1-101.2"/>
	<path class="st14" d="M1117.1,557.6L1117.1,557.6l-6.5,13.6l-32.2-31.7l-18.4,19l-9.9-17.1l-36.2,29.8l-5-20.1l51.1-55.4l48.5,52.5
		L1117.1,557.6z"/>
	<path class="st15" d="M1237.2,687.6l-4-4.3l-116.1-125.7"/>
	<path class="st16" d="M1008.9,551.1l-54,58.5"/>
	<path class="st17" d="M744.6,493l-63.3,108"/>
	<path class="st18" d="M892.8,503.7l62.1,106l51.4,87.7"/>
	<path class="st19" d="M815.6,371.9l-71,121.2l12.2,48.1l19.7-52.1l8.6,21.4l30.5-46.1l20.2,54.5l13.5-36.1l31.4,40.2l12.2-19.3
		L815.6,371.9L815.6,371.9z"/>
	<path class="st20" d="M659.1,553.4l-12.6,32.3l-21.2-63.9l-16.1,48.5l-7.2-31.7l-16.1,47.1c0,0-4.6-15.5-10-34.6v0l41.1-88.3
		L659.1,553.4L659.1,553.4z"/>
	<path class="st21" d="M724.1,693.1l-42.8-92l-22.2-47.7"/>
	<path class="st22" d="M575.8,551.1l-62.3,133.8"/>
</g>
<g>
	<path class="st23" d="M879.4,707.4c-4.4-0.5-8.9-1-13.4-1.5c-47.2-5.2-94.5-9.5-141.9-12.8c-31.2-2.2-62.4-4-93.6-5.3
		c-39-1.7-78-2.7-117-2.9c-98.5-0.6-198.2,3.5-293.5,14.5"/>
	<path class="st24" d="M241.4,724.7c208.9,18.4,407.5,1.9,601.1-14.2l20.9-1.7l16-1.3c43.1-3.6,85.4-7,126.9-10
		c11.4-0.8,22.7-1.6,34-2.4c40.1-2.7,79.3-4.8,117.3-6.1c26.5-0.9,53.1-1.3,79.6-1.3c30.8,0,61,0.5,90.4,1.5
		c34.5,1.1,68.9,2.8,103.3,5c149.7,9.6,257.4,26.6,257.4,26.6 M605.2,778.3c98.4-13.4,199.5-38.1,303-38.1
		c203.6,0,277.6,36.8,421.6,43.7c9.9,0.5,20.2,0.8,30.8,1c165.2,2.7,240.8-34.4,341.3-2.3"/>
	<path class="st25" d="M1046.3,850.8c-47.5-6.4-96.5-14.8-146.4-25.6c-108-23.4-207.4-38-294.7-47c-116.7-12-211.9-13.8-277.2-12.7
		c-63.1,1.1-119.2,6.7-119.2,6.7"/>
	<path class="st26" d="M1708.5,872.1c-44.7-0.6-119.5-8.6-155-17c-74.6-17.7-141.7-44.1-255.1-44.1c-84.8,0-156.1,23.9-252.1,39.8
		c-75.3,12.5-165.9,20.1-290.3,7.3c-369.9-38-526.5,14.4-526.5,14.4"/>
</g>
</svg>
