<?xml version="1.0" encoding="utf-8"?>
<!-- Generator: Adobe Illustrator 28.3.0, SVG Export Plug-In . SVG Version: 6.00 Build 0)  -->
<svg version="1.1" id="Шар_1" xmlns="http://www.w3.org/2000/svg" xmlns:xlink="http://www.w3.org/1999/xlink" x="0px" y="0px"
	 viewBox="0 0 888 600" style="enable-background:new 0 0 888 600;" xml:space="preserve">
<style type="text/css">
	.st0{fill:#2E3440;}
	.st1{fill:#88C0D0;}
	.st2{enable-background:new    ;}
</style>
<g>
	<path class="st0" d="M476.2,339.8l-62.9-80.5V237l69.7,90.1h37.5v-127h-63l-13.6-13.6h90.3v153.3H476.2z"/>
	<path class="st0" d="M410.8,186.5l62.9,80.5v22.3L404,199.2h-37.5v126.9h63l13.6,13.6h-90.3V186.5H410.8z"/>
</g>
<path class="st1" d="M272.5,365.9h2l31.8,45h0.1v-45h1.3v46.6h-2l-31.8-45h-0.1v45h-1.3V365.9L272.5,365.9z M328.3,378.2
	c9.8,0,15.1,8.4,15.1,17.6s-5.3,17.6-15.1,17.6c-9.8,0-15.1-8.4-15.1-17.6C313.1,386.6,318.4,378.2,328.3,378.2L328.3,378.2z
	 M328.3,412c8.9,0,13.8-7.8,13.8-16.2c0-8.4-4.8-16.2-13.8-16.2c-9.1,0-13.8,7.9-13.8,16.2C314.4,404.2,319.2,412,328.3,412z
	 M350.1,412.5h-1.3V379h1.3v8.3h0.1c1.2-5,5.2-9.3,13.2-9.1v1.3c-9.2-0.5-13.3,6.7-13.3,14L350.1,412.5L350.1,412.5z M391.8,365.9
	h1.3v46.6h-1.3v-9.4h-0.1c-1.7,5.9-6.6,10.2-13.4,10.2c-8.9,0-14.3-7.4-14.3-17.5c0-9.4,5-17.6,14.3-17.6c7.1,0,11.9,4.1,13.4,10.2
	h0.1V365.9z M378.2,379.5c-9.2,0-13,8.5-13,16.3c0,8.6,4.3,16.2,13,16.2c8.6,0,13.6-7.5,13.6-16.2
	C391.8,385.4,386.3,379.5,378.2,379.5z"/>
<g class="st2">
	<path class="st0" d="M416.7,366.3h6.5l16.1,40.7l16-40.7h6.5v46.4h-4.4v-40.1h-0.1l-15.9,40.1h-4.2l-15.9-40.1h-0.1v40.1h-4.4
		V366.3z"/>
	<path class="st0" d="M469.8,389.4c0.4-7.9,5.9-11.2,13.6-11.2c5.9,0,12.4,1.8,12.4,10.8v17.8c0,1.6,0.8,2.5,2.4,2.5
		c0.5,0,1-0.1,1.3-0.3v3.4c-0.9,0.2-1.6,0.3-2.7,0.3c-4.2,0-4.8-2.3-4.8-5.9h-0.1c-2.9,4.4-5.8,6.8-12.2,6.8
		c-6.2,0-11.2-3.1-11.2-9.8c0-9.4,9.2-9.8,18-10.8c3.4-0.4,5.3-0.8,5.3-4.5c0-5.5-4-6.9-8.8-6.9c-5.1,0-8.8,2.3-9,7.8H469.8z
		 M491.6,394.4h-0.1c-0.5,1-2.3,1.3-3.4,1.5c-7,1.2-15.6,1.2-15.6,7.7c0,4.1,3.6,6.6,7.5,6.6c6.2,0,11.8-4,11.7-10.5V394.4z"/>
	<path class="st0" d="M504,366.3h4.1v6.6H504V366.3z M504,379.2h4.1v33.5H504V379.2z"/>
	<path class="st0" d="M515.9,379.2h4.1v5.8h0.1c1.5-4,6-6.8,10.7-6.8c9.4,0,12.3,4.9,12.3,12.9v21.6H539v-20.9
		c0-5.8-1.9-10.1-8.5-10.1c-6.5,0-10.4,4.9-10.5,11.5v19.6h-4.1V379.2z"/>
	<path class="st0" d="M570.9,389c-0.2-5.1-4.1-7.3-8.8-7.3c-3.6,0-7.9,1.4-7.9,5.8c0,3.6,4.2,4.9,7,5.7l5.5,1.2
		c4.7,0.7,9.6,3.4,9.6,9.3c0,7.3-7.2,10.1-13.5,10.1c-7.8,0-13.1-3.6-13.8-11.8h4.1c0.3,5.5,4.4,8.4,9.9,8.4c3.8,0,9.2-1.7,9.2-6.4
		c0-3.9-3.6-5.2-7.3-6.1l-5.3-1.2c-5.3-1.4-9.4-3.2-9.4-9c0-6.8,6.7-9.4,12.6-9.4c6.7,0,12,3.5,12.3,10.8H570.9z"/>
	<path class="st0" d="M581.7,389.4c0.4-7.9,5.9-11.2,13.6-11.2c5.9,0,12.4,1.8,12.4,10.8v17.8c0,1.6,0.8,2.5,2.4,2.5
		c0.5,0,1-0.1,1.3-0.3v3.4c-0.9,0.2-1.6,0.3-2.7,0.3c-4.2,0-4.8-2.3-4.8-5.9h-0.1c-2.9,4.4-5.8,6.8-12.2,6.8
		c-6.2,0-11.2-3.1-11.2-9.8c0-9.4,9.2-9.8,18-10.8c3.4-0.4,5.3-0.8,5.3-4.5c0-5.5-4-6.9-8.8-6.9c-5.1,0-8.8,2.3-9,7.8H581.7z
		 M603.6,394.4h-0.1c-0.5,1-2.3,1.3-3.4,1.5c-7,1.2-15.6,1.2-15.6,7.7c0,4.1,3.6,6.6,7.5,6.6c6.2,0,11.8-4,11.7-10.5V394.4z"/>
	<path class="st0" d="M615.9,366.3h4.1v6.6h-4.1V366.3z M615.9,379.2h4.1v33.5h-4.1V379.2z"/>
	<path class="st0" d="M628,366.3h4.1v46.4H628V366.3z"/>
</g>
</svg>
