<?xml version="1.0" encoding="utf-8"?>
<!-- Generator: Adobe Illustrator 28.3.0, SVG Export Plug-In . SVG Version: 6.00 Build 0)  -->
<svg version="1.1" id="Шар_1" xmlns="http://www.w3.org/2000/svg" xmlns:xlink="http://www.w3.org/1999/xlink" x="0px" y="0px"
	 viewBox="0 0 888 600" style="enable-background:new 0 0 888 600;" xml:space="preserve">
<style type="text/css">
	.st0{fill:#2E3440;}
	.st1{fill:#88C0D0;}
	.st2{font-family:'HelveticaNeueLTStd-Lt';}
	.st3{font-size:65px;}
</style>
<g>
	<path class="st0" d="M476.2,339.8l-62.9-80.5v-22.3l69.7,90.1h37.5V200.1h-63l-13.6-13.6h90.3v153.3H476.2z"/>
	<path class="st0" d="M410.8,186.5l62.9,80.5v22.3L404,199.2h-37.5v126.9h63l13.6,13.6h-90.3V186.5H410.8z"/>
</g>
<path class="st1" d="M272.5,365.9h2l31.8,45h0.1v-45h1.3v46.6h-2l-31.8-45h-0.1v45h-1.3V365.9L272.5,365.9z M328.3,378.2
	c9.8,0,15.1,8.4,15.1,17.6c0,9.2-5.3,17.6-15.1,17.6c-9.8,0-15.1-8.4-15.1-17.6C313.1,386.6,318.4,378.2,328.3,378.2L328.3,378.2z
	 M328.3,412c8.9,0,13.8-7.8,13.8-16.2c0-8.4-4.8-16.2-13.8-16.2c-9.1,0-13.8,7.9-13.8,16.2C314.4,404.2,319.2,412,328.3,412z
	 M350.1,412.5h-1.3V379h1.3v8.3h0.1c1.2-5,5.2-9.3,13.2-9.1v1.3c-9.2-0.5-13.3,6.7-13.3,14V412.5L350.1,412.5z M391.8,365.9h1.3
	v46.6h-1.3v-9.4h-0.1c-1.7,5.9-6.6,10.2-13.4,10.2c-8.9,0-14.3-7.4-14.3-17.5c0-9.4,5-17.6,14.3-17.6c7.1,0,11.9,4.1,13.4,10.2h0.1
	V365.9z M378.2,379.5c-9.2,0-13,8.5-13,16.3c0,8.6,4.3,16.2,13,16.2c8.6,0,13.6-7.5,13.6-16.2C391.8,385.4,386.3,379.5,378.2,379.5z
	"/>
<text transform="matrix(1 0 0 1 412.1537 412.7067)" class="st0 st2 st3">Mainsail</text>
</svg>
