<?xml version="1.0" encoding="utf-8"?>
<!-- Generator: Adobe Illustrator 28.3.0, SVG Export Plug-In . SVG Version: 6.00 Build 0)  -->
<svg version="1.1" id="Шар_1" xmlns="http://www.w3.org/2000/svg" xmlns:xlink="http://www.w3.org/1999/xlink" x="0px" y="0px"
	 viewBox="0 0 300 1000" style="enable-background:new 0 0 300 1000;" xml:space="preserve">
<style type="text/css">
	.st0{fill:#88C0D0;stroke:#4C566A;stroke-width:4;stroke-miterlimit:9.6086;}
	.st1{fill:#88C0D0;stroke:#4C566A;stroke-width:4;stroke-miterlimit:10;}
</style>
<path class="st0" d="M203.6,79.5h-12c-4.2,0-7.6-3.4-7.6-7.6c0-3.6,2.5-6.6,5.9-7.4h12.2c4.2,0,7.6-3.4,7.6-7.6
	c0-4.2-3.4-7.6-7.6-7.6h-80.9c-4.2,0-7.6,3.4-7.6,7.6c0,4.2,3.4,7.6,7.6,7.6h44.6c3.4,0.8,5.9,3.8,5.9,7.4c0,4.2-3.4,7.6-7.6,7.6
	H143c-4.2,0-7.6,3.4-7.6,7.6c0,4.2,3.4,7.6,7.6,7.6h3.2c-0.4,0-0.7,0-1,0.1c3.7,0.5,6.6,3.7,6.6,7.5c0,3.8-2.9,7-6.6,7.5
	c0.3,0,0.7,0.1,1,0.1H70.3c-4.2,0-7.6,3.4-7.6,7.6c0,4.2,3.4,7.6,7.6,7.6h98.5c4.2,0,7.6-3.4,7.6-7.6c0-4.2-3.4-7.6-7.6-7.6h0.2
	c-4.2,0-7.6-3.4-7.6-7.6c0-4.2,3.4-7.6,7.6-7.6h34.6c4.2,0,7.6-3.4,7.6-7.6C211.2,82.9,207.8,79.5,203.6,79.5z"/>
<path class="st0" d="M111.3,918.7H126c5.1,0,9.3,4.2,9.3,9.3c0,4.4-3.1,8.1-7.2,9.1h-15c-5.1,0-9.3,4.2-9.3,9.3
	c0,5.1,4.2,9.3,9.3,9.3h99.2c5.1,0,9.3-4.2,9.3-9.3c0-5.1-4.2-9.3-9.3-9.3h-54.7c-4.1-0.9-7.2-4.6-7.2-9.1c0-5.1,4.2-9.3,9.3-9.3h26
	c5.1,0,9.3-4.2,9.3-9.3c0-5.1-4.2-9.3-9.3-9.3h-3.9c0.4,0,0.8,0,1.3-0.1c-4.5-0.6-8-4.5-8-9.2c0-4.7,3.5-8.6,8-9.2
	c-0.4-0.1-0.8-0.1-1.3-0.1h93c5.1,0,9.3-4.2,9.3-9.3c0-5.1-4.2-9.3-9.3-9.3H153.9c-5.1,0-9.3,4.2-9.3,9.3c0,5.1,4.2,9.3,9.3,9.3
	h-0.2c5.1,0,9.3,4.2,9.3,9.3c0,5.1-4.2,9.3-9.3,9.3h-42.4c-5.1,0-9.3,4.2-9.3,9.3C102,914.5,106.1,918.7,111.3,918.7z"/>
<path class="st0" d="M221.1,647.9h-113c-6.6,0-11.9-5.4-11.9-12c0-6.6,5.4-12,12-12H156c6.6,0,12-5.4,12-12c0-6.6-5.4-12-12-12
	h-18.9c-6.6,0-12-5.4-12-12c0-6.6,5.4-12,12-12h2.1c6.6,0,12-5.4,12-12s-5.4-12-12-12h-56c-6.6,0-12,5.4-12,12s5.4,12,12,12h17.9
	c6.6,0,12,5.4,12,12c0,6.6-5.4,12-12,12H28c-6.6,0-12,5.4-12,12c0,6.6,5.4,12,12,12h36.3c6.6,0,12,5.4,12,12c0,6.6-5.3,12-11.9,12
	h0.7c-6.6,0-12,5.4-12,12c0,6.6,5.4,12,12,12h22c6.6,0,12,5.4,12,12c0,6.6-5.4,12-12,12h-52c-6.6,0-12,5.4-12,12c0,6.6,5.4,12,12,12
	h96c6.6,0,12-5.4,12-12c0-6.6-5.4-12-12-12h-1.8c-6.6,0-12-5.4-12-12c0-6.6,5.4-12,12-12h91.7c6.6,0,12-5.4,12-12
	C233.1,653.3,227.7,647.9,221.1,647.9L221.1,647.9z"/>
<path class="st0" d="M175,428.5h25.5c3.7,0,6.8,3,6.8,6.8s-3,6.8-6.8,6.8h-14.3c-3.7,0-6.8,3-6.8,6.8c0,3.7,3,6.8,6.8,6.8h54
	c3.7,0,6.8-3,6.8-6.8c0-3.7-3-6.8-6.8-6.8h-17.7c-3.7,0-6.8-3-6.8-6.8s3-6.8,6.8-6.8h29c3.7,0,6.8-3,6.8-6.8c0-3.7-3-6.8-6.8-6.8
	h-7.9c-3.7,0-6.8-3-6.8-6.8c0-3.7,3-6.8,6.8-6.8h22.5c3.7,0,6.8-3,6.8-6.8c0-3.7-3-6.8-6.8-6.8h-54c-3.7,0-6.8,3-6.8,6.8
	c0,3.7,3,6.8,6.8,6.8h7.9c3.7,0,6.8,3,6.8,6.8c0,3.7-3,6.8-6.8,6.8h-45c-3.7,0-6.8,3-6.8,6.8C168.3,425.4,171.3,428.5,175,428.5z"/>
<path class="st1" d="M142,280.3h-37c-5.4,0-9.8-4.4-9.8-9.8c0-5.4,4.4-9.8,9.8-9.8h20.7c5.4,0,9.8-4.4,9.8-9.8
	c0-5.4-4.4-9.8-9.8-9.8H47.3c-5.4,0-9.8,4.4-9.8,9.8c0,5.4,4.4,9.8,9.8,9.8H73c5.4,0,9.8,4.4,9.8,9.8c0,5.4-4.4,9.8-9.8,9.8H31
	c-5.4,0-9.8,4.4-9.8,9.8c0,5.4,4.4,9.8,9.8,9.8h11.4c5.4,0,9.8,4.4,9.8,9.8c0,5.4-4.4,9.8-9.8,9.8H9.8c-5.4,0-9.8,4.4-9.8,9.8
	c0,5.4,4.4,9.8,9.8,9.8h78.3c5.4,0,9.8-4.4,9.8-9.8c0-5.4-4.4-9.8-9.8-9.8H76.7c-5.4,0-9.8-4.4-9.8-9.8c0-5.4,4.4-9.8,9.8-9.8H142
	c5.4,0,9.8-4.4,9.8-9.8C151.8,284.7,147.4,280.3,142,280.3z"/>
</svg>
